<?xml version="1.0" encoding="UTF-8"?>
<svg width="64px" height="64px" viewBox="0 0 64 64" version="1.1" xmlns="http://www.w3.org/2000/svg" xmlns:xlink="http://www.w3.org/1999/xlink">
    <!-- Generator: Sketch 48.2 (47327) - http://www.bohemiancoding.com/sketch -->
    <title>ico_bat_low</title>
    <desc>Created with Sketch.</desc>
    <defs></defs>
    <g id="Page-1" stroke="none" stroke-width="1" fill="none" fill-rule="evenodd">
        <g id="BATTERIES" transform="translate(0.000000, -1700.000000)" fill-rule="nonzero">
            <g id="ico_bat_low" transform="translate(0.000000, 1700.000000)">
                <g id="ico_bat_low_shapes" transform="translate(0.000000, 14.000000)">
                    <polygon id="Shape" fill="#2B3038" opacity="0" points="60 26 60 10 64 14 64 22"></polygon>
                    <path d="M56,2 C57.1,2 58,2.9 58,4 L58,32 C58,33.1 57.1,34 56,34 L4,34 C2.9,34 2,33.1 2,32 L2,4 C2,2.9 2.9,2 4,2 L56,2 Z M56,0 L4,0 C1.8,0 0,1.8 0,4 L0,32 C0,34.2 1.8,36 4,36 L56,36 C58.2,36 60,34.2 60,32 L60,4 C60,1.8 58.2,0 56,0 Z" id="Shape" fill="#2B3038" opacity="0"></path>
                    <g id="!" transform="translate(32.500000, 18.000000) rotate(-360.000000) translate(-32.500000, -18.000000) translate(30.000000, 7.000000)" fill="#666666" opacity="0.99">
                        <path d="M2.5,16.9583333 C3.16666667,16.9583333 3.66666667,17.2333333 4.08333333,17.6916667 C4.5,18.15 4.75,18.7916667 4.75,19.4333333 C4.75,20.1666667 4.5,20.7166667 4.08333333,21.175 C3.66666667,21.6333333 3.08333333,21.9083333 2.5,21.9083333 C1.91666667,21.9083333 1.33333333,21.6333333 0.916666667,21.175 C0.5,20.7166667 0.25,20.075 0.25,19.4333333 C0.25,18.7 0.5,18.15 0.916666667,17.6916667 C1.33333333,17.2333333 1.83333333,16.9583333 2.5,16.9583333 Z" id="Shape"></path>
                        <path d="M0.916666667,0.733333333 C1.33333333,0.183333333 1.91666667,0 2.5,0 C3.08333333,0 3.66666667,0.275 4.08333333,0.733333333 C4.58333333,1.28333333 4.75,2.10833333 4.75,3.3 C4.75,3.66666667 4.66666667,4.21666667 4.5,4.95 C4.33333333,5.68333333 4.08333333,6.875 3.66666667,8.61666667 C3.41666667,9.625 3,11.1833333 2.83333333,13.2 L2.08333333,13.2 C1.83333333,10.6333333 1.33333333,8.98333333 1.08333333,7.88333333 C0.75,6.50833333 0.5,5.59166667 0.416666667,5.04166667 C0.25,4.30833333 0.166666667,3.75833333 0.166666667,3.3 C0.25,2.2 0.416666667,1.28333333 0.916666667,0.733333333 Z" id="Shape"></path>
                    </g>
                </g>
            </g>
        </g>
    </g>
</svg>