<?xml version="1.0" encoding="UTF-8"?>
<svg width="97px" height="96px" viewBox="0 0 97 96" version="1.1" xmlns="http://www.w3.org/2000/svg" xmlns:xlink="http://www.w3.org/1999/xlink">
    <!-- Generator: Sketch 57.1 (83088) - https://sketch.com -->
    <title>ico_bat_disabled</title>
    <desc>Created with Sketch.</desc>
    <g id="Page-1" stroke="none" stroke-width="1" fill="none" fill-rule="evenodd" opacity="0.4">
        <g id="BATTERIES" fill-rule="nonzero">
            <g id="ico_bat_disabled" transform="translate(0.000000, 0.000000)">
                <g id="ico_bat_inactive_shapes" transform="translate(18.000000, 40.000000)">
                    <polygon id="Shape" fill="#666666" points="56 24 56 8 60 12 60 20"></polygon>
                    <polygon id="Rectangle-path" fill="#CCCCCC" points="2 2 54 2 54 30 2 30"></polygon>
                    <path d="M54,4 L54,28 C54,29.1 53.1,30 52,30 L4,30 C2.9,30 2,29.1 2,28 L2,4 C2,2.9 2.9,2 4,2 L52,2 C53.1,2 54,2.9 54,4 Z M4,1.13686838e-13 C1.8,1.13686838e-13 0,1.8 0,4 L0,28 C0,30.2 1.8,32 4,32 L52,32 C54.2,32 56,30.2 56,28 L56,4 C56,1.8 54.2,1.13686838e-13 52,1.13686838e-13 L4,1.13686838e-13 Z" id="Shape" fill="#666666"></path>
                </g>
            </g>
        </g>
    </g>
</svg>