<?xml version="1.0" encoding="UTF-8"?>
<svg xmlns="http://www.w3.org/2000/svg" xmlns:xlink="http://www.w3.org/1999/xlink" width="1800px" height="1000px" viewBox="0 0 1800 1000">
	<!-- Generator: Sketch 58 (84663) - https://sketch.com -->
	<title>Tesla Model 3 - 4694 2</title>
	<desc>Created with Sketch.</desc>
	<defs>
		<path d="M433.251953,431.634766 C438.559245,333.096354 406.701172,272.411784 337.677734,249.581055 C234.142578,215.334961 169.888672,305.779297 161.271484,347.615234 C155.526693,375.505859 155.526693,399.106631 161.271484,418.41755 L161.271484,418.41755 L164.158203,425.026158 C165.128416,427.247279 164.114353,429.834367 161.893232,430.804579 C161.250156,431.085482 160.549094,431.208078 159.848853,431.162081 L129.789265,429.187572 C124.566483,428.844506 119.461802,427.479759 114.764631,425.170706 L81.0364597,408.590482 C79.1816098,407.678667 77.2588779,406.911988 75.2855379,406.297331 L26.266566,391.02888 C23.6300782,390.207666 22.1585083,387.404645 22.9797227,384.768157 C23.3799162,383.483346 24.2811096,382.414087 25.4795882,381.802087 L28.2207031,380.402344 L28.2207031,380.402344 L14.1527154,356.201718 C11.9457553,352.405168 10.7832031,348.092028 10.7832031,343.70062 L10.7832031,341.606425 C10.7832041,338.58941 10.3280998,335.589655 9.43325093,332.708402 C5.50188046,320.05009 2.8857838,310.011547 1.58496094,302.592773 C0.140548804,294.35509 0.140548804,288.336535 1.58496094,284.537109 C13.8212891,276.28776 21.8583984,263.200195 25.6962891,245.274414 C29.5341797,227.348633 32.6705729,211.960286 35.1054687,199.109375 C33.5566406,196.815755 31.2617188,195.668945 28.2207031,195.668945 C27.1315104,195.668945 26.0423177,195.668945 24.953125,195.668945 C23.2962708,195.668945 21.953125,194.3258 21.953125,192.668945 L21.953125,185.577148 L21.953125,185.577148 C27.4440104,176.229492 30.1894531,167.135417 30.1894531,158.294922 C30.1894531,150.586337 27.5951595,141.657825 22.4065723,131.509386 L22.4065646,131.50939 C21.6523244,130.03416 22.2368022,128.226818 23.7120323,127.472578 C24.1469466,127.250219 24.6295778,127.13742 25.1179944,127.14398 C36.2452985,127.293431 47.6857848,125.864578 59.4394531,122.857422 C73.0196449,119.382953 94.8946449,112.623513 125.064453,102.579102 C198.48112,74.9104818 262.690104,53.3164063 317.691406,37.796875 C372.692708,22.2773438 442.919271,10.5800781 528.371094,2.70507813 C622.22526,-1.86653646 701.110677,0.488932292 765.027344,9.77148438 C828.94401,19.0540365 887.617187,34.3457031 941.046875,55.6464844 C988.582096,76.3457023 1025.37572,93.2864575 1051.42773,106.46875 C1077.47975,119.651042 1115.08132,140.354167 1164.23242,168.578125 L1193.80438,168.578125 C1196.91721,168.578126 1200.02324,168.868815 1203.08201,169.446409 C1259.21674,180.046433 1298.04227,186.488124 1319.55859,188.771484 C1334.22464,190.327878 1378.20179,197.716424 1436.55469,223.121094 C1450.33982,229.122623 1474.76984,238.389187 1501.24609,253.568359 C1507.3342,257.058748 1516.14894,262.802837 1527.69031,270.800624 C1533.24227,274.64795 1536.17294,281.279762 1535.27994,287.97519 L1528.33203,340.068359 L1528.33203,340.068359 L1533.95711,358.329348 C1534.34947,359.603062 1533.85447,360.982913 1532.74193,361.716771 L1519.61766,370.373869 C1519.20823,370.643938 1518.87126,371.010273 1518.63627,371.440791 L1511.4335,384.636549 C1510.63968,386.090858 1511.17511,387.913327 1512.62942,388.707147 C1512.66567,388.726933 1512.70232,388.745968 1512.73936,388.764241 L1527.13645,395.867665 C1529.61285,397.089504 1530.62988,400.087522 1529.40804,402.563924 C1529.04407,403.301616 1528.50371,403.938113 1527.83487,404.416989 L1510.75969,416.642526 C1504.50183,421.123053 1497.29408,424.098438 1489.69788,425.336923 L1464.54667,429.437579 C1455.57711,430.899976 1446.504,431.634766 1437.41602,431.634766 L1428.88928,431.634766 C1426.68013,431.634769 1424.88927,429.843906 1424.88927,427.634766 C1424.88927,427.319708 1424.92649,427.005754 1425.00017,426.699432 C1441.21259,359.288336 1424.86976,306.165869 1375.97168,267.332031 C1300.84375,207.666992 1201.62012,259.939453 1178,313.089844 C1162.25326,348.523437 1154.02083,389.009766 1153.30273,434.548828 L433.251953,431.634766 Z" id="path-1"/>
		<filter x="-1.1%" y="-3.9%" width="102.1%" height="107.8%" id="filter-3">
			<feGaussianBlur stdDeviation="16.5" in="SourceAlpha" result="shadowBlurInner1"/>
			<feOffset dx="0" dy="1" in="shadowBlurInner1" result="shadowOffsetInner1"/>
			<feComposite in="shadowOffsetInner1" in2="SourceAlpha" operator="arithmetic" k2="-1" k3="1" result="shadowInnerInner1"/>
			<feColorMatrix values="0 0 0 0 0 0 0 0 0 0 0 0 0 0 0 0 0 0 0.1 0" type="matrix" in="shadowInnerInner1"/>
		</filter>
		<radialGradient cx="10.6776011%" cy="54.3927339%" fx="10.6776011%" fy="54.3927339%" r="76.8132933%" gradientTransform="translate(0.106776,0.543927),scale(0.356671,1.000000),rotate(-99.865139),scale(1.000000,4.407608),translate(-0.106776,-0.543927)" id="radialGradient-4">
			<stop stop-color="#FFFFFF" offset="0%"/>
			<stop stop-color="#FFFFFF" offset="14.1483428%"/>
			<stop stop-color="#FFFFFF" stop-opacity="0" offset="100%"/>
		</radialGradient>
		<radialGradient cx="26.3537879%" cy="67.3625%" fx="26.3537879%" fy="67.3625%" r="76.3046289%" gradientTransform="translate(0.263538,0.673625),scale(0.480803,1.000000),rotate(-97.350789),scale(1.000000,2.114941),translate(-0.263538,-0.673625)" id="radialGradient-5">
			<stop stop-color="#FFFFFF" offset="0%"/>
			<stop stop-color="#FFFFFF" offset="14.1483428%"/>
			<stop stop-color="#FFFFFF" stop-opacity="0" offset="100%"/>
		</radialGradient>
		<radialGradient cx="47.7220535%" cy="105.647936%" fx="47.7220535%" fy="105.647936%" r="126.480075%" gradientTransform="translate(0.477221,1.056479),scale(0.118305,1.000000),rotate(-90.000000),scale(1.000000,4.407608),translate(-0.477221,-1.056479)" id="radialGradient-6">
			<stop stop-color="#FFFFFF" offset="0%"/>
			<stop stop-color="#FFFFFF" offset="14.1483428%"/>
			<stop stop-color="#FFFFFF" stop-opacity="0" offset="100%"/>
		</radialGradient>
		<radialGradient cx="26.3537879%" cy="67.3625%" fx="26.3537879%" fy="67.3625%" r="278.807663%" gradientTransform="translate(0.263538,0.673625),scale(0.092370,1.000000),rotate(-85.417936),scale(1.000000,4.203572),translate(-0.263538,-0.673625)" id="radialGradient-7">
			<stop stop-color="#FFFFFF" offset="0%"/>
			<stop stop-color="#FFFFFF" offset="14.1483428%"/>
			<stop stop-color="#FFFFFF" stop-opacity="0" offset="100%"/>
		</radialGradient>
	</defs>
	<g id="Cars" stroke="none" stroke-width="1" fill="none" fill-rule="evenodd">
		<g id="Tesla-Model-3---4694-2">
			<g id="Group-3" transform="translate(131.498348, 293.000000)">
				<g id="Group-2">
					<ellipse id="Oval" fill="#272727" cx="782.998047" cy="497" rx="706" ry="11"/>
					<path d="M1456.12695,429.884766 C1443.83789,433.215495 1435.20768,436.214844 1430.23633,438.882813 C1426.5957,440.836624 1422.23651,443.143427 1417.15878,445.803222 C1415.20186,446.828287 1412.78448,446.072868 1411.75942,444.115947 C1411.45944,443.543262 1411.30273,442.906399 1411.30273,442.259904 L1411.30273,440.345655 C1411.30273,436.982801 1408.91142,434.095149 1405.6075,433.46833 L1386.71875,429.884766 L1386.71875,429.884766 L1333.45508,470.439453 L1247.4375,467.080078 L1199.9375,425.251953 L1188.66016,415.558594 C1174.47135,422 1160.18685,426.775391 1145.80664,429.884766 C1131.42643,432.994141 1133.92513,434.548828 1153.30273,434.548828 L1148.85742,442.999023 L436.072266,442.999023 L433.251953,431.634766 L388.289063,429.884766 L346.857422,470.439453 C311.440755,473.908203 293.732422,475.642578 293.732422,475.642578 C293.732422,475.642578 275.419271,471.481771 238.792969,463.160156 L214.378906,438.882813 L199.986328,425.251953 C196.117839,422.163411 183.929687,422.163411 163.421875,425.251953 C132.660156,429.884766 118.582031,365.841797 118.582031,365.841797 C118.582031,365.841797 143.517578,317.311849 193.388672,220.251953 L391.787109,217.495543 L1368.24219,228.982422 L1440.89844,293.693359 L1456.12695,429.884766 Z" id="Path-42" fill="#272727"/>
					<mask id="mask-2" fill="white">
						<use xlink:href="#path-1"/>
					</mask>
					<g id="Path-37">
						<use fill="#BE3F3F" fill-rule="evenodd" xlink:href="#path-1"/>
						<use fill="black" fill-opacity="1" filter="url(#filter-3)" xlink:href="#path-1"/>
					</g>
					<g id="High" opacity="0.5" mask="url(#mask-2)" fill-rule="nonzero">
						<g transform="translate(-14.498348, 6.000000)">
							<path d="M30,163 C160.282874,125.589367 456.664869,144.200195 457.003465,144 C457.335131,143.799805 313,112 234,112 C181.333333,112 239,74.6666667 407,0 L5,81 C-1.66666667,119.666667 -1.66666667,143 5,151" id="Path-331" fill="url(#radialGradient-4)" opacity="0.300000012"/>
							<path d="M97,185 C126.333333,202.333333 152.666667,236 176,286 C197.997245,242.448104 231.208,219.022957 273,211 L346,185 C328.666667,174.333333 317.666667,168 313,166 C306,163 53,159 97,185 Z" id="Path-332" fill="url(#radialGradient-5)" opacity="0.200000003"/>
							<path d="M441,286 C465.534041,240.154521 482.720075,189.94199 603,201 L1104,226 C1155.37349,226.000704 1183.97046,243.135711 1189,278 C1207.18093,250.946423 1227.74624,224.902035 1277,211 L364,177 C349.333333,205.666667 354,236.333333 378,269" id="Path-333" fill="url(#radialGradient-6)" opacity="0.300000012"/>
							<path d="M997,178 C1214.33333,176.666667 1335.66667,183 1361,197 C1386.33333,211 1408.33333,213.666667 1427,205 C1331.38821,152.335495 1154.40474,174.124874 997,178 Z" id="Path-334" fill="url(#radialGradient-7)" opacity="0.300000012"/>
						</g>
					</g>
					<path d="M17.4223754,337.0457 C23.0520769,339.503318 27.6080624,341.80334 31.090332,343.945764 C34.1733454,345.842551 38.0979776,348.651399 42.8642286,352.372309 C43.1827175,352.620946 43.3202843,353.036817 43.2128915,353.426333 C43.0765854,353.920717 42.5920932,354.225576 42.0972928,354.149083 L41.9830789,354.124574 L23.6794951,349.078118 C20.7698175,348.275895 18.4627963,346.071188 17.5231754,343.216877 L17.4337996,342.929308 L16.0625643,338.242998 C15.9967226,338.017979 16.0120407,337.776979 16.1058422,337.562107 C16.3267955,337.055966 16.9162218,336.824776 17.4223754,337.0457 Z M1468.03846,333.760397 L1512.54558,335.186942 C1513.64958,335.222328 1514.51586,336.145984 1514.48048,337.249987 C1514.46924,337.600534 1514.36602,337.941963 1514.18117,338.240022 L1509.01563,346.569061 C1507.12598,349.971913 1502.17643,351.67334 1494.16699,351.67334 L1468.76976,351.67334 C1467.77403,351.67334 1466.92996,350.940866 1466.7897,349.955064 L1464.97226,337.181443 C1464.73888,335.541109 1465.87943,334.022157 1467.51977,333.788769 C1467.69152,333.764332 1467.86507,333.754839 1468.03846,333.760397 Z M1364.82907,203.741854 L1364.97565,203.770555 L1365.81569,203.96791 C1373.60752,205.804309 1380.04201,207.479719 1385.11914,208.994141 C1391.7973,210.986119 1401.15781,214.200149 1413.20068,218.63623 C1431.23588,226.007116 1444.62943,231.885371 1453.38135,236.270996 C1462.13326,240.656621 1472.53903,246.70431 1484.59863,254.414062 C1496.53939,261.407227 1501.74235,266.95931 1500.20752,271.070313 C1497.90527,277.236816 1492.75488,275.324219 1470.63086,269.590332 C1448.50684,263.856445 1443.7793,258.375 1440.65674,255.849609 C1437.53418,253.324219 1393.00586,227.175781 1382.2417,221.503418 C1376.4576,218.455384 1370.09446,213.680073 1363.15228,207.177485 C1362.63029,206.688542 1362.40912,205.958065 1362.57224,205.26169 C1362.81271,204.235126 1363.80408,203.580172 1364.82907,203.741854 Z M1133.68261,231.92033 L1183.12663,233.164494 C1184.78296,233.206172 1186.09189,234.58268 1186.05021,236.23901 C1186.03015,237.036358 1185.69339,237.792893 1185.11437,238.341431 L1167.48242,255.044922 L1132.27566,237.607718 C1130.79094,236.872362 1130.18345,235.072628 1130.91881,233.5879 C1131.43704,232.541548 1132.51532,231.890957 1133.68261,231.92033 Z M151.189376,157 C151.741644,157.000031 152.189345,157.447732 152.189345,158 C152.189345,158.292282 152.061467,158.569933 151.839351,158.759915 C130.533999,176.982928 112.42902,190.151498 97.5244141,198.265625 C74.4541016,210.825195 68.2773437,209.625 55.3007813,209.625 L42.0201854,209.625 L42.0201854,209.625 C39.5273947,209.625002 37.2942673,208.083669 36.4101937,205.752913 L34.5646589,200.88738 C33.5218076,198.138026 31.2755733,196.01886 28.4702148,195.137695 L27.1820253,194.733074 C25.3046634,194.143394 24.0273437,192.40334 24.0273437,190.435547 L24.0273437,188.630161 C24.0273438,187.644517 24.270163,186.674051 24.7343378,185.804548 L34.4626229,167.58129 C37.9397345,161.067881 44.7225621,157 52.105976,157 L151.189376,157 Z M667.395508,-15 L804.170898,5.4765625 L1041.55176,74.8828125 L1166.04492,162.131836 L1196.1906,168.52253 C1197.01489,168.697274 1197.60449,169.424968 1197.60449,170.267578 C1197.60449,171.065802 1196.9574,171.712891 1196.15918,171.712891 L1160.79492,171.712891 C1146.58073,173.942708 1123.4515,165.839518 1091.40723,147.40332 C1070.28918,135.253364 988.770953,86.0463809 904.1875,53.1572266 C875.012527,41.8129249 832.311355,30.9164406 776.083984,20.4677734 C731.011719,13.7900391 684.668945,9.9983724 637.055664,9.09277344 C589.442383,8.18717448 537.501953,10.4710286 481.234375,15.9443359 C441.431641,20.6363932 401.866862,27.2985026 362.540039,35.9306641 C323.213216,44.5628255 282.347656,56.1080729 239.943359,70.5664063 C200.820183,83.8500168 172.431836,92.9387426 154.77832,97.8325837 C137.124804,102.726425 127.670421,104.127608 126.415169,102.036133 L145.604492,81.6884766 L366.02832,7.6953125 L667.395508,-15 Z M636.685547,26.9238281 C704.880859,26.5371094 766.624349,33.3125 821.916016,47.25 C877.207682,61.1875 930.255208,81.8476563 981.058594,109.230469 C1003.32798,121.107636 1020.22186,130.746959 1031.74023,138.148438 C1043.25861,145.549916 1057.27749,155.774525 1073.79688,168.822266 C949.459635,168.988932 823.209635,164.471354 695.046875,155.269531 C596.231901,148.174819 473.074219,143.498047 347.845703,128.111328 C305.076172,121.091797 275.266276,109.214193 258.416016,92.4785156 C315.031901,69.9602865 378.615234,53.1998698 449.166016,42.1972656 C519.716797,31.1946615 582.223307,26.1035156 636.685547,26.9238281 Z" id="Combined-Shape" fill="#272727" mask="url(#mask-2)"/>
					<g id="Paths" mask="url(#mask-2)" stroke="#272727" stroke-width="4">
						<g transform="translate(327.417969, 128.111328)">
							<path d="M743.660156,40.7109375 L761.238402,59.9662077 C761.887102,60.6767945 762.317001,61.5594581 762.476523,62.5082984 C772.105302,119.7807 770.246591,190.121033 756.900391,273.529297" id="Path-50" stroke-linecap="round"/>
							<path d="M827.835938,276.109375 L247.820312,264.796875 C219.096033,264.567032 198.40658,261.427709 185.751953,255.378906 C173.097326,249.330103 156.706701,234.745468 136.580078,211.625 C106.130498,175.64249 82.5712533,146.751214 65.9023438,124.951172 C50.2222734,104.44436 29.853662,76.1066774 4.79650961,39.9381235 L4.79651322,39.938121 C2.21618117,36.2135605 2.46259602,31.2194888 5.39705247,27.7670362 C10.7075762,21.519088 15.7178035,12.2634093 20.4277344,0" id="Path-51"/>
							<path d="M367.628906,27.1582031 C376.761173,66.814061 382.267684,100.297134 384.148437,127.607422 C386.029191,154.91771 386.029191,201.394272 384.148438,267.037109" id="Path-52"/>
						</g>
					</g>
				</g>
				<g id="Wheels" transform="translate(175.998047, 256.037109)">
					<g id="Group-11" transform="translate(999.000000, 0.000000)">
						<path d="M122.100003,0 C189.533972,0 244.200005,54.6660332 244.200005,122.100003 C244.200005,189.533972 189.533972,244.200005 122.100003,244.200005 C54.6660332,244.200005 0,189.533972 0,122.100003 C0,54.6660332 54.6660332,0 122.100003,0 Z M122.100003,36.3000008 C74.7139701,36.3000008 36.3000008,74.7139701 36.3000008,122.100003 C36.3000008,169.486035 74.7139701,207.900005 122.100003,207.900005 C169.486035,207.900005 207.900005,169.486035 207.900005,122.100003 C207.900005,74.7139701 169.486035,36.3000008 122.100003,36.3000008 Z" id="Combined-Shape" fill="#272727"/>
						<path d="M189.26435,162.38044 L162.651342,142.206298 C157.808758,138.536653 155.145761,132.669632 155.578286,126.610095 L155.586767,126.464226 L155.90904,123.534955 C156.757128,115.700386 162.617418,109.334693 170.351983,107.834438 L197.940293,102.483898 C199.560141,108.75291 200.416711,115.325535 200.416711,122.100003 C200.416711,136.832011 196.345887,150.610777 189.26435,162.38044 Z M122.095762,200.417705 C110.035948,200.417705 98.6206799,197.686885 88.4181784,192.818902 L108.543312,164.917049 C111.21479,161.221962 115.183843,158.676024 119.653268,157.796564 L132.35763,155.296423 L140.185484,153.597717 C147.097403,152.099159 154.238306,154.787574 158.444824,160.468018 L173.668008,181.019556 C159.886574,193.087744 141.856218,200.417705 122.095762,200.417705 Z M43.7832947,122.100003 C43.7832947,120.234225 43.8681035,118.390498 43.9953167,116.557796 L78.3089667,126.100399 C84.2540652,127.755004 88.9355123,132.343969 90.7080167,138.256787 L91.3864873,140.522858 L92.6246961,143.531 C95.6862946,150.997502 93.3964564,159.591103 87.0273137,164.54559 L68.3693726,179.055402 C53.2394785,164.77542 43.7832947,144.547849 43.7832947,122.100003 Z M45.1487167,107.628355 C45.199602,107.356969 45.2504873,107.084735 45.3013726,106.814197 C45.4794712,105.937282 45.6575697,105.062063 45.8611109,104.196172 C45.920477,103.948533 45.9713623,103.700893 46.0307285,103.454102 C46.1749035,102.884192 46.3105976,102.31513 46.4632535,101.74946 C46.7007182,100.861519 46.9466638,99.9778194 47.218052,99.1026002 L87.8838828,122.776771 L45.0384653,108.274592 C45.0723888,108.060028 45.1063123,107.842919 45.1487167,107.628355 Z M109.145455,44.8678438 L109.145455,85.3026322 C109.145455,90.6955769 106.728403,95.8035665 102.547328,99.2179391 L97.7641108,103.134375 L95.5336387,105.065455 C89.5800593,110.230266 80.955002,110.914667 74.2635858,106.754832 L49.9319344,91.6284656 C60.193802,67.3377402 82.3797902,49.3245076 109.145455,44.8678438 Z M137.83628,121.417298 C137.157809,119.466712 138.192477,117.336334 140.14308,116.657869 C142.093683,115.979405 144.222384,117.010671 144.900855,118.961256 C145.579325,120.911842 144.544658,123.043068 142.594055,123.720685 C140.643452,124.399149 138.51475,123.367883 137.83628,121.417298 Z M132.281302,139.914784 C133.89267,138.631638 136.250355,138.903024 137.530968,140.521162 C138.811581,142.1393 138.540193,144.491027 136.928825,145.774173 C135.308977,147.057319 132.951292,146.785934 131.670678,145.167796 C130.390065,143.549658 130.661453,141.19793 132.281302,139.914784 Z M112.215534,125.638195 C112.894005,120.150265 117.897725,116.253335 123.384856,116.935192 C128.871987,117.617048 132.773193,122.61818 132.086242,128.10611 C131.407771,133.594039 126.40405,137.49097 120.91692,136.809113 C115.429789,136.128104 111.537064,131.126125 112.215534,125.638195 Z M126.183547,106.623379 C126.158105,108.688456 124.461928,110.337124 122.392593,110.306593 C120.331739,110.276062 118.677967,108.577357 118.71189,106.513129 C118.737333,104.448052 120.44199,102.798536 122.502845,102.829066 C124.57218,102.859597 126.217471,104.558303 126.183547,106.623379 Z M115.200805,44.1028751 C116.294839,44.007042 117.405834,43.9273224 118.51683,43.8730453 C119.704153,43.8145277 120.899958,43.7823006 122.095762,43.7823006 C123.096506,43.7823006 124.080289,43.8204643 125.072552,43.8569317 L115.048149,93.1024297 L115.048149,44.1172925 C115.099034,44.112204 115.14992,44.1079636 115.200805,44.1028751 Z M106.21107,144.928637 C104.667549,143.561531 104.514893,141.198778 105.888796,139.651031 C107.254218,138.102436 109.611903,137.95487 111.163905,139.321976 C112.715906,140.688234 112.860081,143.050987 111.494659,144.599582 C110.129237,146.148177 107.763071,146.294895 106.21107,144.928637 Z M99.0277622,120.151961 C99.6044622,118.169149 101.673798,117.02848 103.658324,117.605175 C105.64285,118.181022 106.779289,120.256275 106.202589,122.239088 C105.625889,124.2219 103.556553,125.362569 101.572027,124.786722 C99.5875005,124.210027 98.4510622,122.135622 99.0277622,120.151961 Z M83.8130593,190.415442 C82.6596593,189.765812 81.5232211,189.09074 80.4037446,188.384289 C80.3867829,188.371567 80.3613402,188.357998 80.3443785,188.344429 C79.2164211,187.632889 78.1139064,186.891667 77.0283535,186.12585 C76.9944299,186.1038 76.9689873,186.079205 76.9350638,186.057155 L107.788514,158.251984 L83.9572343,190.496857 C83.906349,190.469719 83.8639446,190.441732 83.8130593,190.415442 Z M187.602097,79.1803381 L154.238306,96.397223 C148.751175,99.2281161 142.195453,99.0466269 136.87794,95.9163612 L134.834047,94.7171752 C128.201997,90.4598105 125.114956,82.3792982 127.226696,74.7847362 L135.495556,44.9475634 C157.2575,48.7011683 175.940884,61.4223777 187.602097,79.1803381 Z M190.307499,83.6251287 C191.359128,85.4841214 192.33443,87.3914547 193.233403,89.339496 C193.419983,89.7423343 193.606562,90.1468687 193.784661,90.5539474 C194.013644,91.0721247 194.217186,91.5996308 194.437689,92.1228966 L148.88687,105.048493 L190.307499,83.6242806 C190.307499,83.6251287 190.307499,83.6251287 190.307499,83.6251287 Z M186.491102,166.657311 C185.70238,167.804764 184.871253,168.925927 184.014684,170.026735 C183.997722,170.054722 183.97228,170.081012 183.955318,170.108151 C183.132672,171.158923 182.293065,172.185949 181.419534,173.19262 C181.385611,173.234176 181.351687,173.273188 181.309283,173.314744 L153.364775,141.587199 L186.491102,166.657311 Z M122.095762,27.5000006 C69.853527,27.5000006 27.5000006,69.8539954 27.5000006,122.100003 C27.5000006,174.34601 69.853527,216.700005 122.095762,216.700005 C174.346478,216.700005 216.700005,174.34601 216.700005,122.100003 C216.700005,69.8539954 174.346478,27.5000006 122.095762,27.5000006 L122.095762,27.5000006 Z" id="Fill-24" fill="#E3E3E3"/>
					</g>
					<g id="Group-11-Copy-6">
						<path d="M122.100003,0 C189.533972,0 244.200005,54.6660332 244.200005,122.100003 C244.200005,189.533972 189.533972,244.200005 122.100003,244.200005 C54.6660332,244.200005 0,189.533972 0,122.100003 C0,54.6660332 54.6660332,0 122.100003,0 Z M122.100003,36.3000008 C74.7139701,36.3000008 36.3000008,74.7139701 36.3000008,122.100003 C36.3000008,169.486035 74.7139701,207.900005 122.100003,207.900005 C169.486035,207.900005 207.900005,169.486035 207.900005,122.100003 C207.900005,74.7139701 169.486035,36.3000008 122.100003,36.3000008 Z" id="Combined-Shape" fill="#272727"/>
						<path d="M189.26435,162.38044 L162.651342,142.206298 C157.808758,138.536653 155.145761,132.669632 155.578286,126.610095 L155.586767,126.464226 L155.90904,123.534955 C156.757128,115.700386 162.617418,109.334693 170.351983,107.834438 L197.940293,102.483898 C199.560141,108.75291 200.416711,115.325535 200.416711,122.100003 C200.416711,136.832011 196.345887,150.610777 189.26435,162.38044 Z M122.095762,200.417705 C110.035948,200.417705 98.6206799,197.686885 88.4181784,192.818902 L108.543312,164.917049 C111.21479,161.221962 115.183843,158.676024 119.653268,157.796564 L132.35763,155.296423 L140.185484,153.597717 C147.097403,152.099159 154.238306,154.787574 158.444824,160.468018 L173.668008,181.019556 C159.886574,193.087744 141.856218,200.417705 122.095762,200.417705 Z M43.7832947,122.100003 C43.7832947,120.234225 43.8681035,118.390498 43.9953167,116.557796 L78.3089667,126.100399 C84.2540652,127.755004 88.9355123,132.343969 90.7080167,138.256787 L91.3864873,140.522858 L92.6246961,143.531 C95.6862946,150.997502 93.3964564,159.591103 87.0273137,164.54559 L68.3693726,179.055402 C53.2394785,164.77542 43.7832947,144.547849 43.7832947,122.100003 Z M45.1487167,107.628355 C45.199602,107.356969 45.2504873,107.084735 45.3013726,106.814197 C45.4794712,105.937282 45.6575697,105.062063 45.8611109,104.196172 C45.920477,103.948533 45.9713623,103.700893 46.0307285,103.454102 C46.1749035,102.884192 46.3105976,102.31513 46.4632535,101.74946 C46.7007182,100.861519 46.9466638,99.9778194 47.218052,99.1026002 L87.8838828,122.776771 L45.0384653,108.274592 C45.0723888,108.060028 45.1063123,107.842919 45.1487167,107.628355 Z M109.145455,44.8678438 L109.145455,85.3026322 C109.145455,90.6955769 106.728403,95.8035665 102.547328,99.2179391 L97.7641108,103.134375 L95.5336387,105.065455 C89.5800593,110.230266 80.955002,110.914667 74.2635858,106.754832 L49.9319344,91.6284656 C60.193802,67.3377402 82.3797902,49.3245076 109.145455,44.8678438 Z M137.83628,121.417298 C137.157809,119.466712 138.192477,117.336334 140.14308,116.657869 C142.093683,115.979405 144.222384,117.010671 144.900855,118.961256 C145.579325,120.911842 144.544658,123.043068 142.594055,123.720685 C140.643452,124.399149 138.51475,123.367883 137.83628,121.417298 Z M132.281302,139.914784 C133.89267,138.631638 136.250355,138.903024 137.530968,140.521162 C138.811581,142.1393 138.540193,144.491027 136.928825,145.774173 C135.308977,147.057319 132.951292,146.785934 131.670678,145.167796 C130.390065,143.549658 130.661453,141.19793 132.281302,139.914784 Z M112.215534,125.638195 C112.894005,120.150265 117.897725,116.253335 123.384856,116.935192 C128.871987,117.617048 132.773193,122.61818 132.086242,128.10611 C131.407771,133.594039 126.40405,137.49097 120.91692,136.809113 C115.429789,136.128104 111.537064,131.126125 112.215534,125.638195 Z M126.183547,106.623379 C126.158105,108.688456 124.461928,110.337124 122.392593,110.306593 C120.331739,110.276062 118.677967,108.577357 118.71189,106.513129 C118.737333,104.448052 120.44199,102.798536 122.502845,102.829066 C124.57218,102.859597 126.217471,104.558303 126.183547,106.623379 Z M115.200805,44.1028751 C116.294839,44.007042 117.405834,43.9273224 118.51683,43.8730453 C119.704153,43.8145277 120.899958,43.7823006 122.095762,43.7823006 C123.096506,43.7823006 124.080289,43.8204643 125.072552,43.8569317 L115.048149,93.1024297 L115.048149,44.1172925 C115.099034,44.112204 115.14992,44.1079636 115.200805,44.1028751 Z M106.21107,144.928637 C104.667549,143.561531 104.514893,141.198778 105.888796,139.651031 C107.254218,138.102436 109.611903,137.95487 111.163905,139.321976 C112.715906,140.688234 112.860081,143.050987 111.494659,144.599582 C110.129237,146.148177 107.763071,146.294895 106.21107,144.928637 Z M99.0277622,120.151961 C99.6044622,118.169149 101.673798,117.02848 103.658324,117.605175 C105.64285,118.181022 106.779289,120.256275 106.202589,122.239088 C105.625889,124.2219 103.556553,125.362569 101.572027,124.786722 C99.5875005,124.210027 98.4510622,122.135622 99.0277622,120.151961 Z M83.8130593,190.415442 C82.6596593,189.765812 81.5232211,189.09074 80.4037446,188.384289 C80.3867829,188.371567 80.3613402,188.357998 80.3443785,188.344429 C79.2164211,187.632889 78.1139064,186.891667 77.0283535,186.12585 C76.9944299,186.1038 76.9689873,186.079205 76.9350638,186.057155 L107.788514,158.251984 L83.9572343,190.496857 C83.906349,190.469719 83.8639446,190.441732 83.8130593,190.415442 Z M187.602097,79.1803381 L154.238306,96.397223 C148.751175,99.2281161 142.195453,99.0466269 136.87794,95.9163612 L134.834047,94.7171752 C128.201997,90.4598105 125.114956,82.3792982 127.226696,74.7847362 L135.495556,44.9475634 C157.2575,48.7011683 175.940884,61.4223777 187.602097,79.1803381 Z M190.307499,83.6251287 C191.359128,85.4841214 192.33443,87.3914547 193.233403,89.339496 C193.419983,89.7423343 193.606562,90.1468687 193.784661,90.5539474 C194.013644,91.0721247 194.217186,91.5996308 194.437689,92.1228966 L148.88687,105.048493 L190.307499,83.6242806 C190.307499,83.6251287 190.307499,83.6251287 190.307499,83.6251287 Z M186.491102,166.657311 C185.70238,167.804764 184.871253,168.925927 184.014684,170.026735 C183.997722,170.054722 183.97228,170.081012 183.955318,170.108151 C183.132672,171.158923 182.293065,172.185949 181.419534,173.19262 C181.385611,173.234176 181.351687,173.273188 181.309283,173.314744 L153.364775,141.587199 L186.491102,166.657311 Z M122.095762,27.5000006 C69.853527,27.5000006 27.5000006,69.8539954 27.5000006,122.100003 C27.5000006,174.34601 69.853527,216.700005 122.095762,216.700005 C174.346478,216.700005 216.700005,174.34601 216.700005,122.100003 C216.700005,69.8539954 174.346478,27.5000006 122.095762,27.5000006 L122.095762,27.5000006 Z" id="Fill-24" fill="#E3E3E3"/>
					</g>
				</g>
			</g>
		</g>
	</g>
</svg> 